# xmcd
#
# Track frame offsets:
#	150
#	12905
#	22472
#	38880
#	52082
#	61465
#	73227
#	85782
#	98070
#	109445
#	119217
#	129000
#	139595
#	151532
#	163252
#	172490
#	185087
#	198315
#	212537
#	225560
#	237772
#	247517
#	257860
#	267210
#	276912
#	287460
#
# Disc length: 4043 seconds
#
# Revision: 1
# Processed by: cddbd v1.4PL0 Copyright (c) Steve Scherf et al.
# Submitted via: audiograbber 1.81.02
#
DISCID=800fc91a
DTITLE=Various Artist - Ballabili Celebri
DYEAR=1987
DGENRE=Italia
TTITLE0=La cumparsita
TTITLE1=El choclo
TTITLE2=Espana cani
TTITLE3=Amapola
TTITLE4=Rosamunda
TTITLE5=Celebre mazurka variata
TTITLE6=Speranze perdute
TTITLE7=Le onde del danubio
TTITLE8=Valzer delle candele
TTITLE9=Il carnevale del Venezia
TTITLE10=Fisarmonica impazzita
TTITLE11=El relicario
TTITLE12=A media luz
TTITLE13=Caminito
TTITLE14=Hermosamente
TTITLE15=La paloma
TTITLE16=Valencia
TTITLE17=La doccia
TTITLE18=Valzer di mezzanotte
TTITLE19=Malombra
TTITLE20=La matchiche
TTITLE21=Violino tzigano
TTITLE22=Kriminal tango
TTITLE23=Cesarina
TTITLE24=Ciribiribin
TTITLE25=Sulle rive del danubo azzurro
EXTD=
EXTT0=
EXTT1=
EXTT2=
EXTT3=
EXTT4=
EXTT5=
EXTT6=
EXTT7=
EXTT8=
EXTT9=
EXTT10=
EXTT11=
EXTT12=
EXTT13=
EXTT14=
EXTT15=
EXTT16=
EXTT17=
EXTT18=
EXTT19=
EXTT20=
EXTT21=
EXTT22=
EXTT23=
EXTT24=
EXTT25=
PLAYORDER=
